<svg height="48" viewBox="0 0 48 48" width="48" xmlns="http://www.w3.org/2000/svg"><path d="m0 0h48v48h-48z" fill="none"/><path d="m24 2a22 22 0 1 0 22 22 21.9 21.9 0 0 0 -22-22zm-10.9 33.4a16.2 16.2 0 1 1 22.9-22.8.8.8 0 0 1 .4.4l.9.9a5.5 5.5 0 0 1 -1.5 7.6 5.6 5.6 0 0 1 -2.8 1h-.6a6 6 0 0 1 -3.6-1.6h-.1a.8.8 0 0 0 -.4-.4 5.2 5.2 0 0 0 -4-1.5h-.1a11.4 11.4 0 0 0 -11.5 11.3v1a.4.4 0 0 0 .1.3v.7a.4.4 0 0 1 .1.3c.1.2.1.4.2.6s0 .3.1.4a1.4 1.4 0 0 0 .2.6.4.4 0 0 0 .1.3l.3.8a.1.1 0 0 0 .1.1l.4.9a.1.1 0 0 1 .1.1l.4.5a8 8 0 0 1 -1.7-1.5zm24.3-1.5-1.1 1.3h-.3a15.8 15.8 0 0 1 -13 4.7 9.8 9.8 0 0 1 -8.7-9.8v-1a1.3 1.3 0 0 0 .1-.6.3.3 0 0 1 .1-.2 1.9 1.9 0 0 1 .2-.8 3.1 3.1 0 0 1 .2-.8c.1 0 .1-.1.1-.2l.3-.6v-.2l.4-.6h.1l.4-.7.2-.2.4-.4.2-.2c.2-.2.3-.4.5-.5h.1l.6-.5h.2l.6-.4h.2l.6-.4h.2a5.1 5.1 0 0 0 1.7 7.2 5.2 5.2 0 0 0 6.5-.8l.2-.2h.1l.2-.3a5.5 5.5 0 0 1 8.6 6.3z" fill="rgb(0, 186, 219)"/></svg>